# xmcd
#
# Track frame offsets: 
#        150
#        17073
#        29153
#        39933
#        60349
#        73549
#        87080
#        103055
#        123473
#        135070
#        150886
#        167747
#        183191
#        202346
#        217166
#
# Disc length: 3091 seconds
#
# Revision: 0
# Processed by: cddbd v1.5.1PL0 Copyright (c) Steve Scherf et al.
# Submitted via: ExactAudioCopy v0.95a5
#
DISCID=c60c110f
DTITLE=Various Artist - Прикольный СуперХит
DYEAR=2005
DGENRE=Pop
TTITLE0=Валдай/Алаверды
TTITLE1=Мамульки Bend/Секрет
TTITLE2=Манго-Манго/Поле Куликово
TTITLE3=!Цирк/Карпаты
TTITLE4=Мамбо Джа/Бедная Анна
TTITLE5=OSA/По Проспекту
TTITLE6=Open The Door/Вигвам
TTITLE7=Луна/Китаянка Зина
TTITLE8=40 Градусов/Презерватив
TTITLE9=Барабанда/Лето-Зима
TTITLE10=Манго-Манго/Маклай
TTITLE11=!Цирк/Пилоты
TTITLE12=Extra/Твой Папа - Продюсер
TTITLE13=Мамульки Bend/Папина Песня
TTITLE14=Собаки Качалова/Загадочный Русский Soul
EXTD=
EXTT0=
EXTT1=
EXTT2=
EXTT3=
EXTT4=
EXTT5=
EXTT6=
EXTT7=
EXTT8=
EXTT9=
EXTT10=
EXTT11=
EXTT12=
EXTT13=
EXTT14=
PLAYORDER=
